<svg width="230" height="125" viewBox="0 0 230 125" fill="none" xmlns="http://www.w3.org/2000/svg">
<path d="M143.781 68.8597C148.826 60.7155 157.775 53.0711 172.854 46.4663L172.856 46.4644C191.928 37.7005 207.051 26.1563 215.9 15.642C217.042 19.2061 217.447 22.6844 217.221 26.0346C216.292 39.7777 204.68 51.3657 189.073 57.8858L189.799 57.8839V57.9451C196.253 57.7649 202.874 56.9383 210.142 53.6266C213.757 51.9795 217.532 49.7182 221.526 46.6152C219.98 60.0689 210.733 68.4874 197.42 74.2485C195 75.309 192.441 76.2713 189.762 77.1474C195.327 79.2125 201.619 79.1982 209.174 75.5819C202.159 83.4373 194.341 88.6697 185.828 91.3943C183.47 92.0418 181.044 92.504 178.556 92.7928C178.034 92.8672 177.508 92.9326 176.977 92.9882L171.425 102.486C198.587 102.678 213.704 92.7965 222.938 67.7039C229.107 59.3999 230.961 49.6563 228.143 39.1775C229.286 25.9601 227.23 13.8747 220.203 3.55584C215.365 -1.65613 211.423 -1.46072 208.733 6.29638C204.253 16.1462 190.178 25.75 170.35 36.0458C151.859 45.4326 139.926 55.1899 133.676 65.2691C127.567 74.8691 130.197 84.2197 136.635 82.1817C136.774 83.0495 138.98 77.8368 140.632 74.4715C141.517 72.6702 142.715 70.5808 143.781 68.8597Z" fill="#D2AE6D"/>
<path d="M86.4924 68.8597C81.4478 60.7155 72.499 53.0711 57.4191 46.4663L57.4176 46.4644C38.3453 37.7005 23.2231 26.1563 14.3733 15.642C13.2315 19.2061 12.8264 22.6844 13.0528 26.0346C13.9814 39.7777 25.5928 51.3657 41.2012 57.8858L40.4747 57.8839V57.9451C34.0208 57.7649 27.4002 56.9383 20.1318 53.6266C16.5174 51.9795 12.7413 49.7182 8.74786 46.6152C10.2937 60.0689 19.5399 68.4874 32.8537 74.2485C35.2737 75.309 37.8324 76.2713 40.5121 77.1474C34.9472 79.2125 28.6546 79.1982 21.1005 75.5819C28.1145 83.4373 35.9325 88.6697 44.4459 91.3943C46.8035 92.0418 49.2292 92.504 51.7181 92.7928C52.2396 92.8672 52.7661 92.9326 53.2968 92.9882L58.8489 102.486C31.6862 102.678 16.57 92.7965 7.33585 67.7039C1.1669 59.3999 -0.687341 49.6563 2.12992 39.1775C0.988502 25.9601 3.04379 13.8747 10.0711 3.55584C14.9089 -1.65613 18.8509 -1.46072 21.5416 6.29638C26.0214 16.1462 40.0957 25.75 59.9234 36.0458C78.4148 45.4326 90.3471 55.1899 96.5977 65.2691C102.707 74.8691 100.076 84.2197 93.6383 82.1817C93.5004 83.0495 91.2931 77.8368 89.6415 74.4715C88.7571 72.6702 87.559 70.5808 86.4924 68.8597Z" fill="#D2AE6D"/>
<path d="M73.1417 112.221H158.588C161.603 115.233 161.346 121.31 158.588 124.079H73.1417C70.383 121.31 70.1282 115.233 73.1417 112.221Z" fill="#C89D52"/>
<path d="M50.5283 58.0369C60.2327 64.0641 69.9366 70.0842 79.6401 76.1042C76.9854 77.0998 75.0053 78.4048 73.8722 80.0992C93.4638 82.9376 108.917 69.1401 108.644 47.3533C108.001 38.8865 102.21 37.9363 92.8847 42.144C99.7862 30.954 106.697 19.7564 113.608 8.5667V8.52476L115.124 6.06995L115.137 6.09111L115.15 6.06995L116.666 8.52476V8.5667C123.578 19.7564 130.488 30.954 137.389 42.144C128.065 37.9363 122.273 38.8865 121.63 47.3533C121.357 69.1401 136.81 82.9376 156.402 80.0992C155.269 78.4048 153.289 77.0998 150.634 76.1042C160.338 70.0842 170.042 64.0641 179.747 58.0362L179.966 58.0369C175.802 67.1161 171.644 76.2006 167.488 85.2809L167.624 85.3467C164.366 92.1324 161.103 98.9182 157.848 105.704C147.512 105.733 137.178 105.759 126.843 105.783L126.849 105.837L115.137 105.81L103.425 105.837L103.431 105.783C93.096 105.759 82.7609 105.733 72.4265 105.704C69.1705 98.9182 65.908 92.1324 62.6497 85.3467L62.7865 85.2809C58.6294 76.2002 54.4711 67.1154 50.3076 58.0362L50.5283 58.0369Z" fill="#D2AE6D"/>
<path fill-rule="evenodd" clip-rule="evenodd" d="M115.19 98.4935L120.061 85.8608L119.581 85.8347L110.692 85.8385L110.218 85.854C110.691 87.192 114.903 98.1858 115.19 98.4935Z" fill="#FEFEFE"/>
<path fill-rule="evenodd" clip-rule="evenodd" d="M112.445 96.2923L108.455 85.8476L103.694 85.8389C103.9 86.2089 104.423 86.7773 104.751 87.1451L110.168 93.6255C110.552 94.1141 110.854 94.4313 111.258 94.9086C111.533 95.2325 112.104 96.0508 112.445 96.2923Z" fill="#FEFEFE"/>
<path fill-rule="evenodd" clip-rule="evenodd" d="M117.788 96.2767L126.58 85.8399L121.795 85.8384L117.788 96.2767Z" fill="#FEFEFE"/>
<path fill-rule="evenodd" clip-rule="evenodd" d="M110.911 84.1977L119.363 84.1973L115.12 79.2484C114.586 79.9813 111.479 83.2982 110.911 84.1977Z" fill="#FEFEFE"/>
<path fill-rule="evenodd" clip-rule="evenodd" d="M109.265 83.406C109.343 83.3689 109.382 83.3035 109.393 83.3258L109.604 83.1297C109.699 83.025 109.718 82.9747 109.831 82.8424C110.693 81.8227 112.721 79.651 113.267 78.7704H107.499L109.265 83.406Z" fill="#FEFEFE"/>
<path fill-rule="evenodd" clip-rule="evenodd" d="M120.959 83.3867L122.798 78.7832L117.015 78.7704C117.5 79.5792 118.384 80.3967 118.94 81.0952L120.735 83.1973C120.896 83.3591 120.773 83.2646 120.959 83.3867Z" fill="#FEFEFE"/>
<path fill-rule="evenodd" clip-rule="evenodd" d="M103.402 84.1989L107.775 84.1906L106.126 79.8423C105.619 80.4629 105.174 81.3016 104.723 81.9974C104.369 82.5424 103.622 83.6369 103.402 84.1989Z" fill="#FEFEFE"/>
<path fill-rule="evenodd" clip-rule="evenodd" d="M122.476 84.1653L126.871 84.1963C126.654 83.6407 125.905 82.539 125.551 81.9966C125.099 81.2997 124.656 80.4651 124.199 79.8623L122.476 84.1653Z" fill="#FEFEFE"/>
</svg>
