<?xml version="1.0" encoding="utf-8"?>
<!-- Generator: Adobe Illustrator 27.2.0, SVG Export Plug-In . SVG Version: 6.00 Build 0)  -->
<svg version="1.1" id="Camada_2" xmlns="http://www.w3.org/2000/svg" xmlns:xlink="http://www.w3.org/1999/xlink" x="0px" y="0px"
	 viewBox="0 0 76.49 85.95" style="enable-background:new 0 0 76.49 85.95;" xml:space="preserve">
<style type="text/css">
	.st0{fill:#D2AE6D;}
</style>
<path class="st0" d="M6.23,79.26c-0.96,0.25-1.95-0.66-2.3-0.98c-2.3-2.11-4.37-12.49,0.77-23.23c2.65-5.55,6.11-8.85,9.98-12.49
	c4.48-4.21,10.13-7.69,21.42-14.65c1.6-0.99,7.69-4.73,13.6-9.49c1.03-0.83,4.48-3.64,7.19-7.6c1.16-1.7,1.74-2.55,2.23-3.7
	c0.94-2.2,0.88-3.5,2.16-4.74c0.16-0.15,1.3-1.24,2.44-1.33c3.45-0.26,7.16,8.61,8.72,14.3c1.07,3.91,2.18,10.12,1.12,18.14
	c0.6,2.07,1.16,4.86,1.06,8.16c-0.21,7.23-3.39,12.51-5.04,14.86c-1.51,5.92-3.95,10.21-5.72,12.84c-2.09,3.1-6.25,9.27-14.09,12.63
	c-2.74,1.17-5.55,1.57-11.16,2.37c-3.08,0.44-8.25,1.01-14.37,0c-0.92-0.15-5.52-0.96-7.12-3.48c-0.27-0.42-0.97-1.53-0.63-2.66
	c0,0,0.2-0.66,0.85-1.19c2.27-1.85,10.52-0.21,10.52-0.21c8.34,1.65,15.77-1.38,18.7-2.72c6.68-3.05,10.81-7.92,13.05-11.16
	c-1.31,0.68-3.3,1.52-5.86,1.88c-3.39,0.48-6.16-0.1-7.74-0.56c3.59-1.15,7.77-3.05,11.86-6.21c2.87-2.22,6.62-5.12,9-10.4
	c1.54-3.42,1.94-6.57,2.02-8.65c-1.43,1.31-3.14,2.65-5.16,3.91c-6.93,4.29-13.88,5.21-18.14,5.37c1.19-0.48,2.86-1.23,4.74-2.37
	c7.24-4.38,10.76-10.32,11.44-11.51c1.32-2.29,4-7.09,4.05-13.74c0.02-2.89-0.46-5.28-0.91-6.91c-2.72,3.27-5.18,5.79-6.98,7.53
	c-7.01,6.81-13.81,11.33-17.79,13.74c-2.64,1.6-3.22,1.78-8.02,4.67c-4.88,2.94-7.37,4.44-9.63,6.28c-4.3,3.49-6.92,6.91-7.74,8.02
	c-3.12,4.21-5.44,7.34-5.93,11.86C8.24,71.21,8.4,72.7,8.4,72.7c0.04,0.83,0.17,2.84-0.77,4.95C7.16,78.7,6.72,79.13,6.23,79.26z"/>
</svg>
