<?xml version="1.0" standalone="no"?>
<!DOCTYPE svg PUBLIC "-//W3C//DTD SVG 20010904//EN"
 "http://www.w3.org/TR/2001/REC-SVG-20010904/DTD/svg10.dtd">
<svg version="1.0" xmlns="http://www.w3.org/2000/svg"
 width="2499.000000pt" height="1997.000000pt" viewBox="0 0 2499.000000 1997.000000"
 preserveAspectRatio="xMidYMid meet">

<g transform="translate(0.000000,1997.000000) scale(0.100000,-0.100000)"
fill="#000000" stroke="none">
<path d="M4196 17855 c-88 -36 -160 -89 -263 -193 -78 -78 -105 -115 -168
-227 -456 -808 -657 -1784 -606 -2941 12 -269 12 -282 -8 -374 -59 -276 -76
-443 -76 -765 1 -339 19 -495 91 -790 74 -299 231 -669 388 -914 31 -48 64
-120 92 -203 155 -451 344 -880 539 -1218 380 -661 854 -1138 1437 -1444 414
-218 893 -357 1453 -420 138 -16 484 -40 490 -34 8 8 435 846 435 854 0 5 -69
8 -157 6 -341 -7 -796 58 -1148 164 -422 127 -838 352 -1185 640 -218 181
-498 479 -688 734 -70 94 -71 95 -44 98 15 1 369 -29 787 -67 418 -38 761 -68
763 -66 1 1 -26 13 -60 25 -234 87 -626 271 -877 413 -166 94 -405 255 -554
374 -158 126 -409 377 -522 523 -312 403 -497 846 -575 1375 -10 66 -16 121
-15 123 2 2 61 -43 131 -101 617 -498 1156 -761 1799 -878 194 -35 528 -69
685 -69 l75 0 -140 64 c-1017 459 -1677 1067 -1989 1836 -130 321 -187 608
-207 1039 -15 332 13 635 84 916 l23 90 50 -65 c431 -562 1048 -1163 1719
-1673 576 -439 1134 -791 1815 -1147 769 -401 1211 -705 1672 -1149 l136 -131
201 394 c111 216 201 398 201 403 0 17 -288 271 -510 449 -429 344 -846 623
-1545 1035 -1913 1126 -2875 1987 -3175 2844 -142 404 -329 563 -554 470z"/>
<path d="M20316 17864 c-56 -20 -129 -79 -177 -143 -51 -68 -136 -245 -174
-361 -36 -110 -152 -337 -239 -470 -131 -200 -262 -357 -485 -584 -524 -533
-1286 -1084 -2426 -1755 -888 -523 -1361 -855 -1938 -1362 l-38 -34 176 -410
c97 -225 181 -414 185 -419 5 -5 67 46 146 123 149 144 336 301 509 427 345
252 579 393 1145 689 1391 729 2606 1689 3398 2685 63 80 121 151 128 159 9
10 18 -12 42 -115 44 -183 71 -383 78 -569 8 -195 -9 -521 -36 -705 -124 -845
-608 -1548 -1437 -2087 -169 -109 -324 -195 -558 -308 -115 -56 -230 -111
-255 -124 l-45 -22 149 6 c924 33 1634 315 2430 964 55 44 101 79 103 77 5 -5
-26 -218 -48 -321 -92 -437 -263 -812 -533 -1165 -107 -141 -411 -442 -564
-560 -371 -285 -827 -537 -1324 -731 -76 -29 -136 -54 -135 -56 2 -1 347 29
767 68 421 38 775 68 788 67 22 -3 19 -8 -39 -88 -472 -644 -1078 -1108 -1754
-1342 -442 -154 -1014 -232 -1459 -199 -83 6 -151 9 -152 8 -1 -1 82 -198 186
-437 l187 -435 214 1 c783 4 1522 186 2094 517 811 469 1423 1328 1855 2604
25 72 59 145 95 203 196 318 342 685 414 1045 49 244 55 316 55 650 1 351 -9
452 -65 729 l-30 149 12 196 c15 249 6 837 -16 1046 -70 664 -212 1197 -451
1695 -144 297 -194 378 -303 490 -182 186 -340 254 -475 204z"/>
<path d="M12290 15064 c-339 -73 -622 -285 -845 -634 -49 -77 -3196 -6216
-3239 -6318 -37 -89 -83 -239 -103 -337 -13 -67 -18 -133 -17 -260 1 -151 4
-181 27 -270 74 -276 233 -479 481 -611 178 -94 327 -128 566 -128 180 0 309
20 480 74 47 15 655 244 1352 510 l1267 482 638 -292 c351 -161 917 -421 1258
-577 608 -280 771 -346 929 -378 617 -125 1135 138 1299 660 41 131 50 217 44
403 -6 176 -23 274 -74 427 -38 116 -2743 6389 -2814 6525 -206 398 -534 666
-893 729 -83 15 -278 12 -356 -5z"/>
<path d="M16985 3951 c-75 -24 -106 -98 -68 -161 46 -78 164 -69 199 15 8 20
11 47 8 65 -7 31 -55 80 -79 80 -7 0 -19 2 -27 4 -7 2 -22 1 -33 -3z"/>
<path d="M19030 3135 l0 -825 79 0 80 0 3 368 c3 355 4 369 26 424 43 107 129
191 226 221 23 6 93 12 156 12 106 0 120 -2 172 -28 62 -31 113 -85 141 -152
29 -69 37 -170 37 -512 l0 -333 75 0 75 0 0 388 c0 342 -2 395 -19 457 -24 92
-53 147 -106 200 -83 84 -207 128 -355 128 -158 0 -268 -41 -367 -138 l-63
-61 0 338 0 338 -80 0 -80 0 0 -825z"/>
<path d="M8596 3798 l-147 -133 75 -3 75 -3 177 136 176 135 -104 0 -104 0
-148 -132z"/>
<path d="M2610 3085 l0 -775 550 0 550 0 0 70 0 70 -465 0 -465 0 0 290 0 290
400 0 400 0 0 70 0 70 -400 0 -400 0 0 275 0 275 450 0 450 0 0 70 0 70 -535
0 -535 0 0 -775z"/>
<path d="M21905 3743 c8 -170 25 -784 25 -881 l0 -82 65 0 65 0 0 88 c0 48 7
287 15 532 8 245 15 448 15 453 0 4 -43 7 -95 7 l-95 0 5 -117z"/>
<path d="M4298 3480 c-128 -15 -217 -53 -292 -125 -78 -75 -100 -224 -50 -331
48 -102 134 -147 373 -195 175 -36 236 -53 279 -79 43 -26 72 -76 72 -123 0
-130 -130 -198 -349 -184 -138 9 -256 45 -347 106 l-30 20 -33 -57 c-23 -39
-30 -62 -24 -72 15 -26 170 -96 255 -116 110 -25 306 -25 398 -1 96 26 167 65
215 120 49 56 70 117 69 197 0 73 -19 124 -62 172 -60 66 -153 103 -362 143
-142 27 -242 61 -277 95 -61 57 -64 152 -8 218 85 101 358 109 541 18 65 -33
65 -33 76 -12 6 12 22 40 35 63 l24 42 -48 24 c-125 63 -308 94 -455 77z"/>
<path d="M5378 3480 c-165 -20 -280 -86 -335 -194 -50 -99 -37 -236 29 -312
67 -76 139 -105 373 -153 267 -54 314 -83 315 -197 0 -70 -28 -111 -105 -149
-57 -29 -66 -30 -185 -30 -154 0 -227 15 -339 72 -47 23 -89 43 -93 43 -3 0
-21 -26 -38 -57 l-32 -57 23 -19 c38 -31 137 -75 224 -98 105 -29 328 -32 422
-6 179 48 283 161 283 306 0 168 -95 255 -334 306 -307 66 -352 83 -394 145
-20 30 -23 44 -20 94 4 56 7 62 50 101 57 51 99 65 219 72 115 7 214 -12 303
-57 32 -17 63 -30 67 -30 7 0 47 67 67 113 6 12 -117 65 -198 85 -92 24 -213
32 -302 22z"/>
<path d="M6572 3479 c-226 -34 -397 -192 -457 -424 -19 -76 -19 -231 0 -314
46 -194 177 -336 375 -405 76 -27 98 -30 210 -30 134 -1 190 10 296 61 58 27
154 107 154 126 0 7 -19 31 -41 55 l-41 43 -40 -37 c-161 -145 -453 -149 -626
-7 -73 59 -134 175 -144 268 l-3 30 488 3 487 2 0 54 c0 89 -27 203 -66 283
-105 212 -342 329 -592 292z m203 -143 c160 -42 272 -169 300 -338 l6 -38
-412 0 -412 0 6 48 c12 99 78 208 165 270 91 64 234 89 347 58z"/>
<path d="M8492 3479 c-282 -42 -472 -275 -472 -579 1 -278 137 -475 390 -564
78 -27 96 -30 215 -30 117 0 138 3 210 28 44 15 96 37 115 49 46 28 120 97
120 111 0 6 -19 30 -41 54 l-41 43 -40 -37 c-161 -145 -453 -149 -626 -7 -75
62 -142 189 -142 270 l0 33 485 0 485 0 0 54 c0 89 -27 203 -66 283 -105 212
-342 329 -592 292z m203 -143 c160 -42 272 -169 300 -338 l6 -38 -412 0 -412
0 6 50 c12 100 87 216 178 277 86 57 227 78 334 49z"/>
<path d="M10435 3480 c-33 -5 -91 -20 -128 -34 -232 -87 -367 -289 -367 -551
0 -49 7 -118 15 -152 46 -197 193 -354 390 -416 55 -17 95 -22 185 -22 135 0
216 21 319 82 349 208 363 774 24 999 -115 76 -291 114 -438 94z m230 -153
c182 -58 295 -223 295 -432 0 -235 -141 -411 -357 -446 -185 -30 -370 57 -448
211 -42 83 -55 138 -55 235 0 244 134 407 370 449 39 7 151 -3 195 -17z"/>
<path d="M12420 3480 c-86 -12 -139 -29 -215 -68 -334 -175 -400 -672 -126
-942 223 -220 617 -227 821 -14 33 34 60 66 60 71 -1 4 -26 25 -56 46 l-55 39
-39 -44 c-82 -93 -231 -142 -369 -121 -229 36 -371 207 -371 449 0 240 141
410 372 446 138 21 268 -20 358 -112 l49 -51 56 37 c30 20 55 40 55 45 0 21
-116 129 -168 157 -101 54 -253 79 -372 62z"/>
<path d="M13577 3480 c-38 -5 -101 -18 -140 -30 -86 -26 -227 -102 -227 -123
0 -13 64 -107 72 -107 5 0 24 11 42 25 39 30 125 68 186 83 191 46 361 8 430
-97 35 -53 46 -90 56 -188 l7 -73 -224 0 c-317 -1 -418 -23 -513 -110 -80 -73
-110 -217 -70 -333 36 -105 155 -192 295 -216 187 -31 352 12 460 119 l49 49
0 -84 0 -85 75 0 75 0 0 406 c0 430 -4 474 -50 565 -28 54 -103 124 -163 152
-94 44 -234 62 -360 47z m423 -720 c0 -105 -15 -143 -83 -217 -71 -77 -167
-114 -295 -114 -144 1 -242 52 -278 147 -32 84 -1 183 73 231 52 34 113 42
351 42 l232 1 0 -90z"/>
<path d="M15075 3480 c-125 -17 -253 -87 -311 -171 l-29 -42 -3 106 -3 107
-74 0 -75 0 0 -585 0 -585 80 0 80 0 0 340 c0 359 5 410 47 493 71 141 188
203 365 195 108 -5 173 -32 227 -94 78 -89 91 -173 91 -616 l0 -318 74 0 74 0
4 358 c4 345 5 359 28 427 33 96 88 161 174 205 59 30 78 35 160 38 125 6 191
-14 256 -74 55 -51 84 -112 99 -205 6 -35 11 -217 11 -407 l0 -343 78 3 77 3
0 385 c-1 370 -2 388 -23 465 -28 98 -57 149 -115 202 -87 80 -192 116 -337
116 -183 0 -333 -72 -430 -205 l-27 -37 -15 32 c-41 84 -152 170 -253 195 -62
16 -164 21 -230 12z"/>
<path d="M18035 3480 c-145 -20 -255 -83 -339 -195 -14 -18 -15 -10 -16 88 l0
107 -75 0 -75 0 0 -585 0 -585 80 0 80 0 0 348 c0 377 3 406 56 502 65 120
182 180 350 180 153 0 249 -51 304 -162 42 -87 50 -171 50 -550 l0 -318 75 0
75 0 0 383 c0 352 -2 390 -20 463 -35 135 -100 218 -215 276 -87 44 -220 63
-330 48z"/>
<path d="M20925 3480 c-255 -40 -441 -209 -490 -445 -83 -396 188 -736 583
-735 268 1 502 180 567 435 19 77 20 243 0 320 -49 191 -190 341 -374 399 -85
27 -211 38 -286 26z m189 -145 c203 -43 327 -210 327 -440 0 -244 -133 -409
-359 -446 -228 -38 -434 99 -487 322 -52 224 39 444 222 531 99 47 185 57 297
33z"/>
<path d="M16930 2895 l0 -585 80 0 80 0 0 585 0 585 -80 0 -80 0 0 -585z"/>
<path d="M21942 2513 c-83 -41 -81 -157 4 -198 45 -21 93 -14 128 21 53 54 40
146 -27 177 -43 21 -63 21 -105 0z"/>
</g>
</svg>
