<svg width="601" height="350" viewBox="0 0 601 350" fill="none" xmlns="http://www.w3.org/2000/svg">
<path d="M328.884 69.2296C333.929 61.0855 342.877 53.4411 357.957 46.8363L357.959 46.8344C377.031 38.0705 392.153 26.5263 401.003 16.012C402.145 19.5761 402.55 23.0544 402.324 26.4046C401.395 40.1477 389.783 51.7357 374.175 58.2558L374.902 58.2539V58.3151C381.356 58.1349 387.976 57.3083 395.245 53.9966C398.859 52.3495 402.635 50.0882 406.629 46.9852C405.083 60.4389 395.836 68.8574 382.523 74.6185C380.103 75.679 377.544 76.6413 374.864 77.5174C380.429 79.5825 386.722 79.5682 394.276 75.9519C387.262 83.8073 379.444 89.0397 370.931 91.7643C368.573 92.4118 366.147 92.874 363.658 93.1627C363.136 93.2372 362.61 93.3026 362.08 93.3581L356.528 102.856C383.69 103.048 398.807 93.1665 408.041 68.0739C414.21 59.7699 416.064 50.0263 413.246 39.5475C414.388 26.3301 412.333 14.2447 405.305 3.92583C400.468 -1.28614 396.526 -1.09073 393.835 6.66638C389.355 16.5162 375.28 26.12 355.453 36.4158C336.962 45.8026 325.029 55.5599 318.779 65.6391C312.67 75.2391 315.3 84.5896 321.738 82.5517C321.876 83.4195 324.083 78.2068 325.735 74.8415C326.619 73.0402 327.818 70.9508 328.884 69.2296Z" fill="#D2AE6D"/>
<path d="M271.595 69.2296C266.551 61.0855 257.602 53.4411 242.522 46.8363L242.52 46.8344C223.448 38.0705 208.326 26.5263 199.476 16.012C198.334 19.5761 197.929 23.0544 198.156 26.4046C199.084 40.1477 210.696 51.7357 226.304 58.2558L225.578 58.2539V58.3151C219.124 58.1349 212.503 57.3083 205.235 53.9966C201.62 52.3495 197.844 50.0882 193.851 46.9852C195.396 60.4389 204.643 68.8574 217.956 74.6185C220.376 75.679 222.935 76.6413 225.615 77.5174C220.05 79.5825 213.757 79.5682 206.203 75.9519C213.217 83.8073 221.035 89.0397 229.549 91.7643C231.906 92.4118 234.332 92.874 236.821 93.1627C237.342 93.2372 237.869 93.3026 238.4 93.3581L243.952 102.856C216.789 103.048 201.673 93.1665 192.439 68.0739C186.27 59.7699 184.415 50.0263 187.233 39.5475C186.091 26.3301 188.147 14.2447 195.174 3.92583C200.012 -1.28614 203.954 -1.09073 206.644 6.66638C211.124 16.5162 225.198 26.12 245.026 36.4158C263.518 45.8026 275.45 55.5599 281.7 65.6391C287.81 75.2391 285.179 84.5896 278.741 82.5517C278.603 83.4195 276.396 78.2068 274.744 74.8415C273.86 73.0402 272.662 70.9508 271.595 69.2296Z" fill="#D2AE6D"/>
<path d="M258.244 112.591H343.691C346.705 115.603 346.449 121.68 343.691 124.449H258.244C255.486 121.68 255.231 115.603 258.244 112.591Z" fill="#C89D52"/>
<path d="M235.631 58.4069C245.335 64.4341 255.039 70.4542 264.743 76.4742C262.088 77.4697 260.108 78.7748 258.975 80.4692C278.566 83.3076 294.02 69.5101 293.746 47.7233C293.103 39.2564 287.312 38.3063 277.987 42.514C284.889 31.324 291.799 20.1264 298.71 8.9367V8.89475L300.226 6.43994L300.24 6.46111L300.253 6.43994L301.769 8.89475V8.9367C308.68 20.1264 315.591 31.324 322.492 42.514C313.167 38.3063 307.376 39.2564 306.733 47.7233C306.459 69.5101 321.913 83.3076 341.504 80.4692C340.371 78.7748 338.391 77.4697 335.736 76.4742C345.44 70.4542 355.144 64.4341 364.849 58.4062L365.069 58.4069C360.905 67.4861 356.747 76.5706 352.59 85.6509L352.727 85.7167C349.469 92.5024 346.206 99.2882 342.95 106.074C332.615 106.103 322.281 106.129 311.945 106.153L311.952 106.207L300.24 106.18L288.528 106.207L288.534 106.153C278.199 106.129 267.863 106.103 257.529 106.074C254.273 99.2882 251.011 92.5024 247.752 85.7167L247.889 85.6509C243.732 76.5702 239.574 67.4854 235.41 58.4062L235.631 58.4069Z" fill="#D2AE6D"/>
<mask id="path-5-inside-1_201_43" fill="white">
<path fill-rule="evenodd" clip-rule="evenodd" d="M115.544 216.982C110.607 221.33 103.937 223.435 95.536 223.503L68.3412 223.725V209.718V207.128V180.846H94.2097C101.871 180.846 107.614 181.968 111.454 184.162C123.555 191.076 127.165 206.748 115.544 216.982ZM565.496 292.587L566.938 292.43C575.543 291.33 583.277 287.349 589.132 281.495C596.07 274.557 600.377 264.98 600.377 254.44V246.355H585.735V254.44C585.735 260.938 583.071 266.851 578.779 271.142C573.755 276.166 564.114 280.289 557.138 276.509C555.388 275.562 553.492 273.921 551.451 271.588C550.576 270.567 549.774 269.583 549.045 268.635C548.315 267.687 547.586 266.557 546.857 265.244C537.351 248.131 529.919 225.468 522.283 207.128H522.199L502.969 160.939H493.049C486.882 175.877 480.499 191.273 473.901 207.128H473.814L473.298 208.365C464.368 229.776 457.902 249.484 446.331 268.526C442.629 274.616 437.643 278.032 431.372 277.993L421.575 277.931C419.679 277.92 417.892 277.567 416.215 276.838C414.539 276.108 412.788 274.905 410.966 273.228C409.143 271.551 407.247 269.291 405.278 266.448C403.913 264.476 402.404 262.165 400.723 259.528H400.678C396.773 253.615 392.784 247.776 388.738 241.504C382.905 232.463 377.217 223.567 371.675 214.818C380.719 206.436 389.281 198.314 398.854 189.742C402.544 186.437 405.781 183.945 408.697 182.414C411.613 180.883 414.676 180.117 417.885 180.117H422.259V165.243H364.511V180.117H369.542H373.042C375.545 180.117 380.916 181.47 380.916 184.711C380.916 186.898 378.367 190.101 373.479 194.554C359.136 207.623 345.435 220.482 330.77 233.63C330.77 221.5 330.523 209.746 330.523 197.835C330.523 193.606 330.852 190.507 331.508 188.539C332.164 186.57 333.44 184.929 335.336 183.617H335.117C338.034 181.284 342.336 180.117 348.023 180.117H353.492V165.243H322.49H287.869H224.407V179.898H225.906C230.718 179.898 234.148 180.52 236.187 181.758C238.226 182.995 239.249 185.003 239.249 187.773C239.249 189.377 238.992 190.911 238.484 192.367C237.975 193.823 237.016 195.888 235.531 198.491C229.895 208.369 224.88 217.665 219.14 227.723C214.075 217.776 209.449 208.322 204.443 198.491C203.376 196.396 202.402 194.846 201.819 193.679C201.235 192.513 200.797 191.565 200.506 190.836C200.215 190.106 200.032 189.523 199.959 189.086C199.887 188.648 199.849 188.065 199.849 187.336C199.849 182.523 203.641 180.117 211.225 180.117H213.926V165.243H152.164V179.898H157.414C160.039 179.898 162.335 180.117 164.304 180.554C166.273 180.992 168.096 181.795 169.773 182.961C171.449 184.127 173.018 185.659 174.476 187.554C175.934 189.45 177.441 191.87 179.07 194.773C187.954 210.61 196.636 226.539 205.578 242.379C205.578 246.807 206.202 264.108 204.594 269.291C203.938 271.405 202.807 273.118 201.204 274.432C201.004 274.595 200.432 275.088 200.215 275.241L144.739 275.253C141.796 275.253 138.992 272.582 136.894 270.107C135.605 268.587 134.571 266.738 133.876 264.661C132.329 260.035 133.084 256.76 132.905 251.969C132.823 249.75 132.467 247.766 131.241 244.176C129.254 238.355 125.751 234.337 120.74 232.126C122.509 231.389 124.24 230.468 125.935 229.363C127.629 228.257 129.358 227.202 130.91 225.936C145.968 213.654 148.001 194.832 135.553 178.856C132.201 174.554 127.776 171.375 122.397 169.239C117.019 167.103 110.126 166.033 101.726 166.033C66.3558 166.033 35.46 166.05 0.102539 166.05V180.55H25.4511C29.5904 180.781 34.7238 180.659 38.6054 181.73C43.0694 182.961 46.2215 185.007 47.559 189.689C48.1487 191.752 48.4435 194.849 48.4435 198.975V207.128V209.718V253.332C48.4435 257.5 48.606 262.391 48.2458 266.527C48.0681 268.557 47.7994 270.131 47.559 271.287C47.1221 273.388 45.7914 275.12 44.0222 276.593L44.4651 276.373C42.6956 277.551 40.7427 278.436 38.6054 279.025C36.4684 279.615 33.8515 279.91 30.7568 279.91H25.4511V294.944H91.3354V280.131H86.0294C83.081 280.131 80.501 279.835 78.2915 279.247C76.0812 278.658 74.3635 277.709 72.9851 276.593C71.2669 275.203 69.9989 273.534 69.3367 271.398C68.9757 270.233 68.7123 268.749 68.5479 266.947C68.1824 262.941 68.3412 258.161 68.3412 254.094V238.317H95.9775C102.462 238.317 107.186 240.353 110.018 244.507C112.029 247.457 112.892 250.415 113.277 253.531C114.084 260.051 113.036 261.902 115.428 269.149C116.921 273.671 119.24 277.66 122.205 281.301C127.888 288.005 136.283 292.587 145.147 292.587L206.101 292.587H248.233V277.931H243.202C237.223 277.931 232.848 276.765 230.077 274.432C228.473 273.119 227.343 271.405 226.688 269.291C225.079 264.108 225.703 246.807 225.703 242.379C233.679 228.341 241.357 214.293 249.093 200.679C253.159 193.524 257.188 188.318 261.124 185.039C265.058 181.76 269.509 180.117 274.467 180.117H297.056C300.775 180.554 303.837 181.648 306.243 183.398H306.024C307.92 184.857 309.16 186.607 309.743 188.648C310.326 190.689 310.618 193.753 310.618 197.835C310.618 218.301 310.865 238.815 310.865 259.528V259.776C310.865 264.004 310.573 267.14 309.99 269.182C309.407 271.223 308.167 272.9 306.271 274.213H306.49C303.574 276.546 299.198 277.713 293.365 277.713H288.116V292.587H353.739V277.931H348.27C342.875 277.931 338.572 276.765 335.364 274.432H335.583C333.687 272.973 332.411 271.223 331.755 269.182C330.482 265.221 330.77 256.924 330.77 252.441L356.145 228.38C363.086 240.093 369.865 252.424 376.295 263.275C377.595 265.469 378.665 267.359 379.467 268.963C380.269 270.567 380.67 271.734 380.67 272.463C380.67 275.963 376.878 277.713 369.296 277.713H364.264V292.587H424.675H444.162H484.611V277.931H477.392C474.913 277.931 472.798 277.64 471.049 277.056C469.298 276.473 467.913 275.744 466.893 274.869H467.111C466.382 273.702 465.726 272.536 465.142 271.369C464.559 270.203 464.267 269.036 464.267 267.869C464.267 264.227 466.695 257.317 468.048 253.973H520.327C521.744 257.476 522.864 261.07 523.78 264.916C524.144 266.448 524.326 267.797 524.326 268.963C524.326 274.796 520.025 277.713 511.421 277.713H504.203V292.587C524.589 292.587 541.533 292.733 561.776 292.739C563.105 292.739 564.145 292.708 565.496 292.587ZM473.735 240.192H514.422C512.672 235.671 510.958 231.296 509.281 227.067C507.604 222.838 505.963 218.682 504.359 214.599L504.132 214.021H503.81L503.282 212.762L493.606 187.632L486.471 207.128H486.788C485.792 209.638 484.794 212.128 483.798 214.599C480.443 222.911 477.089 231.515 473.735 240.41V240.192Z"/>
</mask>
<path fill-rule="evenodd" clip-rule="evenodd" d="M115.544 216.982C110.607 221.33 103.937 223.435 95.536 223.503L68.3412 223.725V209.718V207.128V180.846H94.2097C101.871 180.846 107.614 181.968 111.454 184.162C123.555 191.076 127.165 206.748 115.544 216.982ZM565.496 292.587L566.938 292.43C575.543 291.33 583.277 287.349 589.132 281.495C596.07 274.557 600.377 264.98 600.377 254.44V246.355H585.735V254.44C585.735 260.938 583.071 266.851 578.779 271.142C573.755 276.166 564.114 280.289 557.138 276.509C555.388 275.562 553.492 273.921 551.451 271.588C550.576 270.567 549.774 269.583 549.045 268.635C548.315 267.687 547.586 266.557 546.857 265.244C537.351 248.131 529.919 225.468 522.283 207.128H522.199L502.969 160.939H493.049C486.882 175.877 480.499 191.273 473.901 207.128H473.814L473.298 208.365C464.368 229.776 457.902 249.484 446.331 268.526C442.629 274.616 437.643 278.032 431.372 277.993L421.575 277.931C419.679 277.92 417.892 277.567 416.215 276.838C414.539 276.108 412.788 274.905 410.966 273.228C409.143 271.551 407.247 269.291 405.278 266.448C403.913 264.476 402.404 262.165 400.723 259.528H400.678C396.773 253.615 392.784 247.776 388.738 241.504C382.905 232.463 377.217 223.567 371.675 214.818C380.719 206.436 389.281 198.314 398.854 189.742C402.544 186.437 405.781 183.945 408.697 182.414C411.613 180.883 414.676 180.117 417.885 180.117H422.259V165.243H364.511V180.117H369.542H373.042C375.545 180.117 380.916 181.47 380.916 184.711C380.916 186.898 378.367 190.101 373.479 194.554C359.136 207.623 345.435 220.482 330.77 233.63C330.77 221.5 330.523 209.746 330.523 197.835C330.523 193.606 330.852 190.507 331.508 188.539C332.164 186.57 333.44 184.929 335.336 183.617H335.117C338.034 181.284 342.336 180.117 348.023 180.117H353.492V165.243H322.49H287.869H224.407V179.898H225.906C230.718 179.898 234.148 180.52 236.187 181.758C238.226 182.995 239.249 185.003 239.249 187.773C239.249 189.377 238.992 190.911 238.484 192.367C237.975 193.823 237.016 195.888 235.531 198.491C229.895 208.369 224.88 217.665 219.14 227.723C214.075 217.776 209.449 208.322 204.443 198.491C203.376 196.396 202.402 194.846 201.819 193.679C201.235 192.513 200.797 191.565 200.506 190.836C200.215 190.106 200.032 189.523 199.959 189.086C199.887 188.648 199.849 188.065 199.849 187.336C199.849 182.523 203.641 180.117 211.225 180.117H213.926V165.243H152.164V179.898H157.414C160.039 179.898 162.335 180.117 164.304 180.554C166.273 180.992 168.096 181.795 169.773 182.961C171.449 184.127 173.018 185.659 174.476 187.554C175.934 189.45 177.441 191.87 179.07 194.773C187.954 210.61 196.636 226.539 205.578 242.379C205.578 246.807 206.202 264.108 204.594 269.291C203.938 271.405 202.807 273.118 201.204 274.432C201.004 274.595 200.432 275.088 200.215 275.241L144.739 275.253C141.796 275.253 138.992 272.582 136.894 270.107C135.605 268.587 134.571 266.738 133.876 264.661C132.329 260.035 133.084 256.76 132.905 251.969C132.823 249.75 132.467 247.766 131.241 244.176C129.254 238.355 125.751 234.337 120.74 232.126C122.509 231.389 124.24 230.468 125.935 229.363C127.629 228.257 129.358 227.202 130.91 225.936C145.968 213.654 148.001 194.832 135.553 178.856C132.201 174.554 127.776 171.375 122.397 169.239C117.019 167.103 110.126 166.033 101.726 166.033C66.3558 166.033 35.46 166.05 0.102539 166.05V180.55H25.4511C29.5904 180.781 34.7238 180.659 38.6054 181.73C43.0694 182.961 46.2215 185.007 47.559 189.689C48.1487 191.752 48.4435 194.849 48.4435 198.975V207.128V209.718V253.332C48.4435 257.5 48.606 262.391 48.2458 266.527C48.0681 268.557 47.7994 270.131 47.559 271.287C47.1221 273.388 45.7914 275.12 44.0222 276.593L44.4651 276.373C42.6956 277.551 40.7427 278.436 38.6054 279.025C36.4684 279.615 33.8515 279.91 30.7568 279.91H25.4511V294.944H91.3354V280.131H86.0294C83.081 280.131 80.501 279.835 78.2915 279.247C76.0812 278.658 74.3635 277.709 72.9851 276.593C71.2669 275.203 69.9989 273.534 69.3367 271.398C68.9757 270.233 68.7123 268.749 68.5479 266.947C68.1824 262.941 68.3412 258.161 68.3412 254.094V238.317H95.9775C102.462 238.317 107.186 240.353 110.018 244.507C112.029 247.457 112.892 250.415 113.277 253.531C114.084 260.051 113.036 261.902 115.428 269.149C116.921 273.671 119.24 277.66 122.205 281.301C127.888 288.005 136.283 292.587 145.147 292.587L206.101 292.587H248.233V277.931H243.202C237.223 277.931 232.848 276.765 230.077 274.432C228.473 273.119 227.343 271.405 226.688 269.291C225.079 264.108 225.703 246.807 225.703 242.379C233.679 228.341 241.357 214.293 249.093 200.679C253.159 193.524 257.188 188.318 261.124 185.039C265.058 181.76 269.509 180.117 274.467 180.117H297.056C300.775 180.554 303.837 181.648 306.243 183.398H306.024C307.92 184.857 309.16 186.607 309.743 188.648C310.326 190.689 310.618 193.753 310.618 197.835C310.618 218.301 310.865 238.815 310.865 259.528V259.776C310.865 264.004 310.573 267.14 309.99 269.182C309.407 271.223 308.167 272.9 306.271 274.213H306.49C303.574 276.546 299.198 277.713 293.365 277.713H288.116V292.587H353.739V277.931H348.27C342.875 277.931 338.572 276.765 335.364 274.432H335.583C333.687 272.973 332.411 271.223 331.755 269.182C330.482 265.221 330.77 256.924 330.77 252.441L356.145 228.38C363.086 240.093 369.865 252.424 376.295 263.275C377.595 265.469 378.665 267.359 379.467 268.963C380.269 270.567 380.67 271.734 380.67 272.463C380.67 275.963 376.878 277.713 369.296 277.713H364.264V292.587H424.675H444.162H484.611V277.931H477.392C474.913 277.931 472.798 277.64 471.049 277.056C469.298 276.473 467.913 275.744 466.893 274.869H467.111C466.382 273.702 465.726 272.536 465.142 271.369C464.559 270.203 464.267 269.036 464.267 267.869C464.267 264.227 466.695 257.317 468.048 253.973H520.327C521.744 257.476 522.864 261.07 523.78 264.916C524.144 266.448 524.326 267.797 524.326 268.963C524.326 274.796 520.025 277.713 511.421 277.713H504.203V292.587C524.589 292.587 541.533 292.733 561.776 292.739C563.105 292.739 564.145 292.708 565.496 292.587ZM473.735 240.192H514.422C512.672 235.671 510.958 231.296 509.281 227.067C507.604 222.838 505.963 218.682 504.359 214.599L504.132 214.021H503.81L503.282 212.762L493.606 187.632L486.471 207.128H486.788C485.792 209.638 484.794 212.128 483.798 214.599C480.443 222.911 477.089 231.515 473.735 240.41V240.192Z" fill="#373435" stroke="white" stroke-width="4" mask="url(#path-5-inside-1_201_43)"/>
<mask id="path-6-inside-2_201_43" fill="white">
<path fill-rule="evenodd" clip-rule="evenodd" d="M174.149 330.928H183.04V331.607H180.105L185.323 339.461L190.455 331.607H187.23V330.928H193.535V331.607H191.225L185.654 340.114V348.049H188.612V348.724H179.48V348.049H182.497V340.576L176.523 331.607H174.149V330.928ZM268.517 330.728L268.599 335.349H267.973C267.09 332.581 265.527 331.195 263.29 331.195C262.048 331.195 261.088 331.539 260.404 332.223C259.716 332.907 259.376 333.619 259.376 334.352C259.376 335.031 259.662 335.612 260.233 336.092C260.803 336.567 261.845 336.938 263.358 337.201C264.871 337.459 266.021 337.776 266.814 338.152C267.607 338.528 268.272 339.158 268.816 340.032C269.36 340.906 269.631 341.912 269.631 343.044C269.631 344.788 269.065 346.238 267.928 347.397C266.791 348.556 265.383 349.136 263.702 349.136C262.33 349.136 260.962 348.629 259.598 347.61L258.353 348.724H257.886V343.746H258.457C258.982 345.313 259.712 346.491 260.649 347.279C261.587 348.063 262.61 348.457 263.73 348.457C264.834 348.457 265.849 348.095 266.773 347.365C267.697 346.636 268.159 345.712 268.159 344.598C268.159 343.66 267.838 342.872 267.199 342.229C266.555 341.585 265.518 341.146 264.078 340.902C262.642 340.657 261.537 340.376 260.767 340.05C259.997 339.729 259.34 339.167 258.792 338.365C258.244 337.568 257.968 336.68 257.968 335.706C257.968 334.361 258.448 333.161 259.404 332.106C260.354 331.046 261.655 330.516 263.29 330.516C264.662 330.516 265.94 330.951 267.127 331.82C267.453 331.508 267.733 331.145 267.973 330.728H268.517ZM334.771 330.928H349.936L350.402 336.979H349.723C349.311 334.954 348.758 333.551 348.074 332.771C347.385 331.997 346.489 331.607 345.37 331.607H343.925V348.049H347.109V348.724H337.597V348.049H340.782V331.607H339.337C338.218 331.607 337.321 331.997 336.633 332.771C335.949 333.551 335.396 334.954 334.983 336.979H334.304L334.771 330.928ZM421.14 331.607V339.235H422.743C423.31 339.235 423.79 339.181 424.184 339.072C424.578 338.959 424.931 338.659 425.243 338.175C425.561 337.686 425.738 336.925 425.783 335.892H426.471V343.429H425.783C425.71 341.998 425.434 341.051 424.954 340.598C424.469 340.141 423.736 339.914 422.743 339.914H421.14V348.049H424.759C426.816 348.049 428.233 347.614 429.026 346.754C429.819 345.889 430.29 344.561 430.439 342.768H431.118L430.946 348.724H415.166V348.049H417.992V331.607H415.166V330.928H430.294L430.598 335.679H429.923C429.692 334.239 429.221 333.197 428.505 332.563C427.785 331.924 426.594 331.607 424.922 331.607H421.14ZM496.426 330.928H502.808L506.617 343.511H506.667L510.503 330.928H516.727V331.607H514.086V348.049H516.727V348.724H508.352V348.049H511.074V331.299H511.019L505.725 348.724H505.117L499.823 331.299H499.769V348.049H502.491V348.724H496.426V348.049H499.094V331.607H496.426V330.928ZM108.28 330.728L108.362 335.349H107.736C106.853 332.581 105.291 331.195 103.053 331.195C101.812 331.195 100.852 331.539 100.167 332.223C99.4788 332.907 99.1395 333.619 99.1395 334.352C99.1395 335.031 99.4244 335.612 99.9951 336.092C100.566 336.567 101.608 336.938 103.121 337.201C104.634 337.459 105.784 337.776 106.577 338.152C107.369 338.528 108.036 339.158 108.579 340.032C109.122 340.906 109.394 341.912 109.394 343.044C109.394 344.788 108.828 346.238 107.691 347.397C106.554 348.556 105.145 349.136 103.465 349.136C102.093 349.136 100.725 348.629 99.3617 347.61L98.116 348.724H97.6492V343.746H98.2195C98.7452 345.313 99.4743 346.491 100.412 347.279C101.35 348.063 102.373 348.457 103.492 348.457C104.597 348.457 105.612 348.095 106.536 347.365C107.46 346.636 107.922 345.712 107.922 344.598C107.922 343.66 107.6 342.872 106.962 342.229C106.318 341.585 105.282 341.146 103.841 340.902C102.405 340.657 101.3 340.376 100.53 340.05C99.7597 339.729 99.1036 339.167 98.5551 338.365C98.0071 337.568 97.7304 336.68 97.7304 335.706C97.7304 334.361 98.2108 333.161 99.1663 332.106C100.118 331.046 101.417 330.516 103.053 330.516C104.425 330.516 105.703 330.951 106.889 331.82C107.216 331.508 107.496 331.145 107.736 330.728H108.28Z"/>
</mask>
<path fill-rule="evenodd" clip-rule="evenodd" d="M174.149 330.928H183.04V331.607H180.105L185.323 339.461L190.455 331.607H187.23V330.928H193.535V331.607H191.225L185.654 340.114V348.049H188.612V348.724H179.48V348.049H182.497V340.576L176.523 331.607H174.149V330.928ZM268.517 330.728L268.599 335.349H267.973C267.09 332.581 265.527 331.195 263.29 331.195C262.048 331.195 261.088 331.539 260.404 332.223C259.716 332.907 259.376 333.619 259.376 334.352C259.376 335.031 259.662 335.612 260.233 336.092C260.803 336.567 261.845 336.938 263.358 337.201C264.871 337.459 266.021 337.776 266.814 338.152C267.607 338.528 268.272 339.158 268.816 340.032C269.36 340.906 269.631 341.912 269.631 343.044C269.631 344.788 269.065 346.238 267.928 347.397C266.791 348.556 265.383 349.136 263.702 349.136C262.33 349.136 260.962 348.629 259.598 347.61L258.353 348.724H257.886V343.746H258.457C258.982 345.313 259.712 346.491 260.649 347.279C261.587 348.063 262.61 348.457 263.73 348.457C264.834 348.457 265.849 348.095 266.773 347.365C267.697 346.636 268.159 345.712 268.159 344.598C268.159 343.66 267.838 342.872 267.199 342.229C266.555 341.585 265.518 341.146 264.078 340.902C262.642 340.657 261.537 340.376 260.767 340.05C259.997 339.729 259.34 339.167 258.792 338.365C258.244 337.568 257.968 336.68 257.968 335.706C257.968 334.361 258.448 333.161 259.404 332.106C260.354 331.046 261.655 330.516 263.29 330.516C264.662 330.516 265.94 330.951 267.127 331.82C267.453 331.508 267.733 331.145 267.973 330.728H268.517ZM334.771 330.928H349.936L350.402 336.979H349.723C349.311 334.954 348.758 333.551 348.074 332.771C347.385 331.997 346.489 331.607 345.37 331.607H343.925V348.049H347.109V348.724H337.597V348.049H340.782V331.607H339.337C338.218 331.607 337.321 331.997 336.633 332.771C335.949 333.551 335.396 334.954 334.983 336.979H334.304L334.771 330.928ZM421.14 331.607V339.235H422.743C423.31 339.235 423.79 339.181 424.184 339.072C424.578 338.959 424.931 338.659 425.243 338.175C425.561 337.686 425.738 336.925 425.783 335.892H426.471V343.429H425.783C425.71 341.998 425.434 341.051 424.954 340.598C424.469 340.141 423.736 339.914 422.743 339.914H421.14V348.049H424.759C426.816 348.049 428.233 347.614 429.026 346.754C429.819 345.889 430.29 344.561 430.439 342.768H431.118L430.946 348.724H415.166V348.049H417.992V331.607H415.166V330.928H430.294L430.598 335.679H429.923C429.692 334.239 429.221 333.197 428.505 332.563C427.785 331.924 426.594 331.607 424.922 331.607H421.14ZM496.426 330.928H502.808L506.617 343.511H506.667L510.503 330.928H516.727V331.607H514.086V348.049H516.727V348.724H508.352V348.049H511.074V331.299H511.019L505.725 348.724H505.117L499.823 331.299H499.769V348.049H502.491V348.724H496.426V348.049H499.094V331.607H496.426V330.928ZM108.28 330.728L108.362 335.349H107.736C106.853 332.581 105.291 331.195 103.053 331.195C101.812 331.195 100.852 331.539 100.167 332.223C99.4788 332.907 99.1395 333.619 99.1395 334.352C99.1395 335.031 99.4244 335.612 99.9951 336.092C100.566 336.567 101.608 336.938 103.121 337.201C104.634 337.459 105.784 337.776 106.577 338.152C107.369 338.528 108.036 339.158 108.579 340.032C109.122 340.906 109.394 341.912 109.394 343.044C109.394 344.788 108.828 346.238 107.691 347.397C106.554 348.556 105.145 349.136 103.465 349.136C102.093 349.136 100.725 348.629 99.3617 347.61L98.116 348.724H97.6492V343.746H98.2195C98.7452 345.313 99.4743 346.491 100.412 347.279C101.35 348.063 102.373 348.457 103.492 348.457C104.597 348.457 105.612 348.095 106.536 347.365C107.46 346.636 107.922 345.712 107.922 344.598C107.922 343.66 107.6 342.872 106.962 342.229C106.318 341.585 105.282 341.146 103.841 340.902C102.405 340.657 101.3 340.376 100.53 340.05C99.7597 339.729 99.1036 339.167 98.5551 338.365C98.0071 337.568 97.7304 336.68 97.7304 335.706C97.7304 334.361 98.2108 333.161 99.1663 332.106C100.118 331.046 101.417 330.516 103.053 330.516C104.425 330.516 105.703 330.951 106.889 331.82C107.216 331.508 107.496 331.145 107.736 330.728H108.28Z" fill="#373435" stroke="white" stroke-width="0.5" mask="url(#path-6-inside-2_201_43)"/>
<path fill-rule="evenodd" clip-rule="evenodd" d="M300.293 98.8634L305.163 86.2307L304.684 86.2046L295.795 86.2084L295.32 86.2239C295.794 87.5618 300.006 98.5557 300.293 98.8634Z" fill="#FEFEFE"/>
<path fill-rule="evenodd" clip-rule="evenodd" d="M297.548 96.6621L293.558 86.2174L288.797 86.2087C289.003 86.5788 289.526 87.1472 289.854 87.5149L295.27 93.9953C295.654 94.484 295.957 94.8011 296.361 95.2785C296.636 95.6024 297.206 96.4206 297.548 96.6621Z" fill="#FEFEFE"/>
<path fill-rule="evenodd" clip-rule="evenodd" d="M302.891 96.6468L311.683 86.21L306.898 86.2085L302.891 96.6468Z" fill="#FEFEFE"/>
<path fill-rule="evenodd" clip-rule="evenodd" d="M296.013 84.5677L304.466 84.5673L300.222 79.6184C299.689 80.3513 296.582 83.6682 296.013 84.5677Z" fill="#FEFEFE"/>
<path fill-rule="evenodd" clip-rule="evenodd" d="M294.368 83.776C294.445 83.7389 294.484 83.6735 294.495 83.6958L294.706 83.4997C294.802 83.395 294.821 83.3447 294.934 83.2124C295.796 82.1927 297.824 80.021 298.37 79.1404H292.602L294.368 83.776Z" fill="#FEFEFE"/>
<path fill-rule="evenodd" clip-rule="evenodd" d="M306.061 83.7567L307.901 79.1532L302.118 79.1404C302.603 79.9492 303.486 80.7667 304.042 81.4652L305.838 83.5673C305.998 83.7291 305.876 83.6346 306.061 83.7567Z" fill="#FEFEFE"/>
<path fill-rule="evenodd" clip-rule="evenodd" d="M288.505 84.5688L292.878 84.5605L291.229 80.2122C290.722 80.8328 290.277 81.6714 289.826 82.3672C289.472 82.9123 288.724 84.0068 288.505 84.5688Z" fill="#FEFEFE"/>
<path fill-rule="evenodd" clip-rule="evenodd" d="M307.579 84.5352L311.974 84.5662C311.757 84.0106 311.008 82.9088 310.654 82.3665C310.201 81.6695 309.759 80.835 309.302 80.2322L307.579 84.5352Z" fill="#FEFEFE"/>
<path d="M585.477 157.728C587.357 157.728 589.191 158.21 590.986 159.177C592.774 160.14 594.173 161.524 595.171 163.318C596.169 165.117 596.671 166.992 596.671 168.937C596.671 170.868 596.18 172.728 595.191 174.506C594.208 176.29 592.83 177.674 591.051 178.657C589.273 179.645 587.412 180.136 585.477 180.136C583.536 180.136 581.677 179.645 579.898 178.657C578.119 177.674 576.736 176.29 575.748 174.506C574.759 172.728 574.263 170.868 574.263 168.937C574.263 166.992 574.765 165.117 575.768 163.318C576.776 161.524 578.175 160.14 579.963 159.177C581.758 158.21 583.592 157.728 585.477 157.728ZM585.477 159.583C583.901 159.583 582.366 159.988 580.876 160.794C579.386 161.599 578.221 162.755 577.379 164.255C576.538 165.755 576.117 167.316 576.117 168.937C576.117 170.554 576.533 172.1 577.359 173.579C578.185 175.059 579.34 176.214 580.825 177.04C582.31 177.866 583.86 178.282 585.477 178.282C587.088 178.282 588.639 177.866 590.124 177.04C591.609 176.214 592.765 175.059 593.586 173.579C594.406 172.1 594.817 170.554 594.817 168.937C594.817 167.316 594.396 165.755 593.559 164.255C592.724 162.755 591.558 161.599 590.063 160.794C588.568 159.988 587.038 159.583 585.477 159.583ZM580.557 175.12V163.079H584.702C586.121 163.079 587.144 163.191 587.778 163.414C588.416 163.637 588.918 164.022 589.298 164.58C589.673 165.132 589.86 165.719 589.86 166.343C589.86 167.22 589.546 167.99 588.912 168.638C588.285 169.292 587.449 169.657 586.404 169.738C586.83 169.916 587.175 170.128 587.428 170.377C587.915 170.848 588.507 171.643 589.212 172.763L590.681 175.12H588.32L587.245 173.224C586.404 171.73 585.72 170.792 585.204 170.417C584.848 170.143 584.332 170.007 583.648 170.012H582.502V175.12H580.557ZM582.502 168.339H584.864C585.994 168.339 586.765 168.172 587.175 167.838C587.585 167.503 587.793 167.057 587.793 166.51C587.793 166.155 587.691 165.836 587.494 165.557C587.296 165.273 587.023 165.066 586.673 164.929C586.318 164.792 585.67 164.721 584.717 164.721H582.502V168.339Z" fill="#373435"/>
<path fill-rule="evenodd" clip-rule="evenodd" d="M576.49 334.128C579.636 334.128 582.188 336.679 582.188 339.826C582.188 342.973 579.636 345.524 576.49 345.524C573.342 345.524 570.792 342.973 570.792 339.826C570.792 336.679 573.342 334.128 576.49 334.128Z" fill="#C89D52"/>
<path fill-rule="evenodd" clip-rule="evenodd" d="M37.886 334.128C41.0328 334.128 43.584 336.679 43.584 339.826C43.584 342.973 41.0328 345.524 37.886 345.524C34.7395 345.524 32.188 342.973 32.188 339.826C32.188 336.679 34.7395 334.128 37.886 334.128Z" fill="#C89D52"/>
</svg>
